<svg width="24" height="24" viewBox="0 0 24 24" fill="none" xmlns="http://www.w3.org/2000/svg">
<path d="M20.9997 19L15.8457 13.846C16.7986 12.3979 17.1802 10.6477 16.9167 8.93442C16.6533 7.22111 15.7635 5.66648 14.4196 4.57154C13.0758 3.47659 11.3734 2.91923 9.6422 3.00735C7.91099 3.09547 6.27404 3.82281 5.04831 5.04855C3.82257 6.27429 3.09523 7.91123 3.0071 9.64245C2.91898 11.3737 3.47635 13.076 4.57129 14.4199C5.66623 15.7637 7.22086 16.6535 8.93418 16.917C10.6475 17.1804 12.3976 16.7988 13.8457 15.846L18.9997 21L20.9997 19ZM4.99973 9.99998C4.99973 7.24298 7.24273 4.99998 9.99973 4.99998C12.7567 4.99998 14.9997 7.24298 14.9997 9.99998C14.9997 12.757 12.7567 15 9.99973 15C7.24273 15 4.99973 12.757 4.99973 9.99998Z" fill="white"/>
</svg>
